<svg version="1.2" xmlns="http://www.w3.org/2000/svg" viewBox="0 0 93 476" width="93" height="476"><style></style><path fill="currentColor" d="m79.5 78.3l0.6 334.4-16.8-0.5v-1.8l-11.5 10.9c-2.1 2.1-5.7 2-7.9-0.2l-11.4-11.7v1.7c0 2.3 0.6 4.6 1.7 6.7l13.6 25.2 13.8-24.3c0.9-1.7 1.7-4.2 1.7-6.5l16.8 0.5c0 5.1-1.3 10.1-3.8 14.5l-21.2 37.4c-1.4 2.6-4.3 4.2-7.6 3.9-2.8 0.1-5.6-1.7-7.1-4.4l-21-38.9c-2.4-4.5-3.7-9.6-3.7-14.7l-0.6-334.5zm-22.4-57.7c12.4 0.4 22.5 10.7 22.4 23v23.7l-64.5-2.3 0.1-23.7c0-12.2 10.1-21.8 22.5-21.4z"/></svg>