<?xml version="1.0" encoding="utf-8"?>
<svg viewBox="0 0 500 500" width="500" height="500" xmlns="http://www.w3.org/2000/svg">
  <path d="M 391.852 154.741 L 161.876 397.581 L 150.093 385.574 L 151.276 384.334 L 135.466 384.334 C 132.448 384.334 129.945 381.784 129.904 378.667 L 129.69 362.337 L 128.509 363.578 C 126.909 365.277 125.746 367.332 125.128 369.599 L 117.609 397.298 L 144.309 389.151 C 146.187 388.479 148.469 387.238 150.093 385.574 L 161.876 397.581 C 158.357 401.265 153.97 403.993 149.152 405.445 L 108.048 417.983 C 105.172 418.869 102.037 418.055 99.874 415.539 C 97.719 413.661 96.881 410.438 97.692 407.428 L 109.273 364.817 C 110.632 359.822 113.19 355.254 116.712 351.569 L 346.664 108.708 L 391.852 154.741 Z M 415.453 97.518 C 424.143 106.37 424.332 120.736 415.873 129.591 L 399.498 146.735 L 354.309 100.695 L 370.684 83.552 C 379.142 74.697 393.067 74.697 401.756 83.552 L 415.453 97.518 Z" style="" transform="matrix(0.724866, -0.688889, 0.688889, 0.724866, -99.119118, 247.061981)"/>
</svg>